<mxfile host="app.diagrams.net" modified="2023-01-06T08:51:00.774Z" agent="5.0 (X11; Ubuntu)" version="20.8.1" etag="DvS856DqIRGOfYsLohKj" type="github">
  <diagram id="uOhukTXhy82f5_tcvqS6" name="Page-1">
    <mxGraphModel dx="1120" dy="765" grid="1" gridSize="10" guides="1" tooltips="1" connect="1" arrows="1" fold="1" page="1" pageScale="1" pageWidth="827" pageHeight="1169" math="0" shadow="0">
      <root>
        <mxCell id="0" />
        <mxCell id="1" parent="0" />
        <mxCell id="CCagWTC7z97AaHXQyRpD-1" value="Le package est sur &lt;font style=&quot;font-size: 14px;&quot;&gt;&lt;b&gt;Pypi&lt;/b&gt;&lt;/font&gt;" style="rounded=0;whiteSpace=wrap;html=1;fillColor=#bac8d3;strokeColor=#99c1f1;" vertex="1" parent="1">
          <mxGeometry x="120" y="100" width="120" height="60" as="geometry" />
        </mxCell>
        <mxCell id="CCagWTC7z97AaHXQyRpD-2" value="Projet &lt;font style=&quot;font-size: 14px;&quot;&gt;&lt;b&gt;gitlab/github&lt;/b&gt;&lt;/font&gt;" style="rounded=0;whiteSpace=wrap;html=1;fillColor=#bac8d3;strokeColor=#99c1f1;" vertex="1" parent="1">
          <mxGeometry x="360" y="100" width="120" height="60" as="geometry" />
        </mxCell>
        <mxCell id="CCagWTC7z97AaHXQyRpD-3" value="&lt;div&gt;Mettre le package sur &lt;b&gt;&lt;font style=&quot;font-size: 14px;&quot;&gt;Conda-forge&lt;/font&gt;&lt;/b&gt;&lt;/div&gt;&lt;div&gt;&lt;i&gt;&lt;span style=&quot;&quot;&gt;&lt;font style=&quot;font-size: 12px;&quot;&gt;public&lt;/font&gt;&lt;/span&gt;&lt;/i&gt;&lt;b style=&quot;&quot;&gt;&lt;font style=&quot;font-size: 12px;&quot;&gt;&lt;br&gt;&lt;/font&gt;&lt;/b&gt;&lt;/div&gt;" style="rounded=1;whiteSpace=wrap;html=1;strokeColor=#6c8ebf;fillColor=#789CF0;" vertex="1" parent="1">
          <mxGeometry x="240" y="230" width="120" height="100" as="geometry" />
        </mxCell>
        <mxCell id="CCagWTC7z97AaHXQyRpD-4" value="" style="endArrow=classic;html=1;rounded=0;fontSize=14;exitX=0.5;exitY=1;exitDx=0;exitDy=0;entryX=0.5;entryY=0;entryDx=0;entryDy=0;" edge="1" parent="1" source="CCagWTC7z97AaHXQyRpD-1" target="CCagWTC7z97AaHXQyRpD-3">
          <mxGeometry width="50" height="50" relative="1" as="geometry">
            <mxPoint x="390" y="420" as="sourcePoint" />
            <mxPoint x="440" y="370" as="targetPoint" />
          </mxGeometry>
        </mxCell>
        <mxCell id="CCagWTC7z97AaHXQyRpD-5" value="" style="endArrow=classic;html=1;rounded=0;fontSize=14;exitX=0.5;exitY=1;exitDx=0;exitDy=0;" edge="1" parent="1" source="CCagWTC7z97AaHXQyRpD-2">
          <mxGeometry width="50" height="50" relative="1" as="geometry">
            <mxPoint x="250" y="170" as="sourcePoint" />
            <mxPoint x="300" y="230" as="targetPoint" />
          </mxGeometry>
        </mxCell>
        <mxCell id="CCagWTC7z97AaHXQyRpD-6" value="&lt;div&gt;Mettre le package sur &lt;b&gt;&lt;font style=&quot;font-size: 14px;&quot;&gt;Conda-ifremer&lt;/font&gt;&lt;/b&gt;&lt;/div&gt;&lt;div style=&quot;&quot;&gt;&lt;font style=&quot;font-size: 12px;&quot;&gt;&lt;i&gt;privé&lt;/i&gt;&lt;/font&gt;&lt;b&gt;&lt;font style=&quot;font-size: 12px;&quot;&gt;&lt;br&gt;&lt;/font&gt;&lt;/b&gt;&lt;/div&gt;" style="rounded=1;whiteSpace=wrap;html=1;strokeColor=#6c8ebf;fillColor=#789CF0;" vertex="1" parent="1">
          <mxGeometry x="480" y="230" width="120" height="100" as="geometry" />
        </mxCell>
        <mxCell id="CCagWTC7z97AaHXQyRpD-7" value="" style="endArrow=classic;html=1;rounded=0;fontSize=14;exitX=0.5;exitY=1;exitDx=0;exitDy=0;entryX=0.5;entryY=0;entryDx=0;entryDy=0;" edge="1" parent="1" source="CCagWTC7z97AaHXQyRpD-2" target="CCagWTC7z97AaHXQyRpD-6">
          <mxGeometry width="50" height="50" relative="1" as="geometry">
            <mxPoint x="370" y="170" as="sourcePoint" />
            <mxPoint x="310" y="240" as="targetPoint" />
          </mxGeometry>
        </mxCell>
        <mxCell id="CCagWTC7z97AaHXQyRpD-8" value="Mettre à jour le package " style="ellipse;whiteSpace=wrap;html=1;strokeColor=#99c1f1;fontSize=12;fillColor=#bac8d3;" vertex="1" parent="1">
          <mxGeometry y="240" width="120" height="80" as="geometry" />
        </mxCell>
        <mxCell id="CCagWTC7z97AaHXQyRpD-9" value="" style="endArrow=classic;html=1;rounded=0;fontSize=12;exitX=1;exitY=0.5;exitDx=0;exitDy=0;entryX=0;entryY=0.5;entryDx=0;entryDy=0;" edge="1" parent="1" source="CCagWTC7z97AaHXQyRpD-8" target="CCagWTC7z97AaHXQyRpD-3">
          <mxGeometry width="50" height="50" relative="1" as="geometry">
            <mxPoint x="390" y="420" as="sourcePoint" />
            <mxPoint x="440" y="370" as="targetPoint" />
          </mxGeometry>
        </mxCell>
      </root>
    </mxGraphModel>
  </diagram>
</mxfile>
